Will seed for one week... the rest is up to you.

Hard coded English subs.




General
Complete name                    : K:\MY MOVIES\Ip Man Zero\Ip-Man-Zero.A.K.A.The.Legend.Is.Born.2010.mp4
Format                           : MPEG-4
Format profile                   : Base Media / Version 2
Codec ID                         : mp42
File size                        : 2.48 GiB
Duration                         : 1h 39mn
Overall bit rate                 : 3 565 Kbps
Encoded date                     : UTC 2011-10-24 12:29:54
Tagged date                      : UTC 2011-10-24 12:37:13
Writing application              : mp4creator 1.6.1d

Video
ID                               : 1
Format                           : AVC
Format/Info                      : Advanced Video Codec
Format profile                   : High@L3.0
Format settings, CABAC           : No
Format settings, ReFrames        : 1 frame
Codec ID                         : avc1
Codec ID/Info                    : Advanced Video Coding
Duration                         : 1h 39mn
Bit rate mode                    : Variable
Bit rate                         : 3 437 Kbps
Width                            : 1 280 pixels
Height                           : 544 pixels
Display aspect ratio             : 2.35:1
Frame rate mode                  : Constant
Frame rate                       : 24.000 fps
Color space                      : YUV
Chroma subsampling               : 4:2:0
Bit depth                        : 8 bits
Scan type                        : Progressive
Bits/(Pixel*Frame)               : 0.206
Stream size                      : 2.39 GiB (96%)
Language                         : English
Encoded date                     : UTC 2011-10-24 12:29:54
Tagged date                      : UTC 2011-10-24 12:36:48
Material_Duration                : 5982209
Material_StreamSize              : 2570093402
Material_FrameCount              : 143573

Audio
ID                               : 2
Format                           : AAC
Format/Info                      : Advanced Audio Codec
Format profile                   : LC
Codec ID                         : 40
Duration                         : 1h 39mn
Bit rate mode                    : Variable
Bit rate                         : 126 Kbps
Maximum bit rate                 : 193 Kbps
Channel(s)                       : 2 channels
Channel positions                : Front: L R
Sampling rate                    : 44.1 KHz
Compression mode                 : Lossy
Stream size                      : 89.5 MiB (4%)
Language                         : English
Encoded date                     : UTC 2011-10-24 12:37:05
Tagged date                      : UTC 2011-10-24 12:37:13
Material_Duration                : 5980834
Material_StreamSize              : 93868291
